<svg xmlns="http://www.w3.org/2000/svg" viewBox="0 0 64 64">
  <defs>
    <linearGradient id="haaG" x1="0" y1="0" x2="0" y2="1">
      <stop offset="0" stop-color="#FFB300"/>
      <stop offset="1" stop-color="#F4511E"/>
    </linearGradient>
  </defs>
  <rect x="45" y="11" width="6" height="14" rx="2" fill="url(#haaG)"/>
  <path d="M32 6 L57 29 L57 52 Q57 56 53 56 L11 56 Q7 56 7 52 L7 29 Z" fill="url(#haaG)"/>
  <g fill="none" stroke="#ffffff" stroke-width="3" stroke-linecap="round">
    <path d="M22 28 A14 14 0 0 1 42 28"/>
    <path d="M26 32 A8 8 0 0 1 38 32"/>
    <path d="M32 39 V52"/>
    <path d="M21 45 V48 Q21 51 26 52"/>
    <path d="M43 45 V48 Q43 51 38 52"/>
  </g>
  <g fill="#ffffff">
    <circle cx="32" cy="35" r="3"/>
    <circle cx="21" cy="42" r="3"/>
    <circle cx="43" cy="42" r="3"/>
  </g>
</svg>
